<svg version="1.0" xmlns="http://www.w3.org/2000/svg"
 width="25.000000pt" height="25.000000pt" viewBox="0 0 25.000000 25.000000"
 preserveAspectRatio="xMidYMid meet">
<g transform="translate(0.000000,25.000000) scale(0.100000,-0.100000)"
fill="#e50914" stroke="none">
<path d="M60 120 c0 -82 3 -100 15 -100 12 0 15 15 15 72 0 70 0 71 20 53 18
-16 20 -16 26 -1 14 35 24 12 24 -54 0 -56 3 -70 15 -70 12 0 15 18 15 100 0
93 -1 100 -20 100 -10 0 -25 -10 -31 -22 l-12 -22 -15 22 c-8 12 -23 22 -33
22 -17 0 -19 -9 -19 -100z"/>
</g>
</svg>
